<?xml version="1.0" standalone="no"?>
<!DOCTYPE svg PUBLIC "-//W3C//DTD SVG 20010904//EN"
 "http://www.w3.org/TR/2001/REC-SVG-20010904/DTD/svg10.dtd">
<svg version="1.0" xmlns="http://www.w3.org/2000/svg"
 width="1200.000000pt" height="1200.000000pt" viewBox="0 0 1200.000000 1200.000000"
 preserveAspectRatio="xMidYMid meet">

<g transform="translate(0.000000,1200.000000) scale(0.100000,-0.100000)"
fill="#000000" stroke="none">
<path d="M6956 11355 c-283 -72 -478 -332 -463 -620 7 -152 46 -285 132 -458
41 -84 75 -159 75 -168 0 -9 9 -42 20 -74 29 -83 25 -142 -19 -332 -70 -301
-72 -306 -102 -333 -24 -21 -37 -56 -84 -220 -30 -107 -55 -213 -55 -236 0
-29 -15 -73 -52 -150 -51 -107 -52 -111 -56 -214 -3 -92 -9 -120 -47 -230 -23
-69 -62 -192 -85 -275 l-42 -150 -77 -75 c-42 -41 -91 -100 -108 -130 l-32
-55 -11 30 c-6 17 -22 44 -36 62 -17 22 -24 44 -24 76 0 25 -6 49 -12 55 -7 5
-41 18 -76 27 -38 11 -67 25 -73 36 -5 11 -26 28 -47 38 -20 11 -59 43 -87 71
-61 63 -122 95 -217 116 -144 30 -293 -19 -423 -138 -133 -122 -190 -245 -190
-413 0 -94 2 -105 34 -170 26 -53 57 -93 128 -163 65 -65 91 -97 85 -105 -5
-7 -17 -37 -27 -66 -27 -81 -155 -211 -209 -211 -36 0 -139 -56 -178 -96 -44
-47 -188 -284 -275 -452 -38 -74 -83 -146 -114 -180 -54 -60 -133 -211 -145
-274 -4 -27 -25 -59 -72 -110 -184 -204 -382 -516 -502 -790 -35 -79 -69 -152
-77 -163 -7 -11 -64 -74 -127 -140 -62 -66 -125 -133 -139 -150 -15 -18 -76
-55 -148 -92 -129 -64 -209 -85 -364 -98 -121 -10 -135 -14 -135 -35 0 -28 35
-46 115 -60 102 -18 228 -14 315 9 75 20 105 16 75 -10 -9 -8 -53 -32 -98 -54
-89 -44 -108 -64 -88 -89 24 -29 103 -20 254 30 76 25 142 42 145 39 4 -3 -6
-28 -21 -55 -28 -50 -35 -94 -16 -105 19 -12 78 5 110 32 17 14 48 50 70 79
82 112 114 120 189 50 53 -49 98 -66 181 -66 59 0 83 12 94 47 8 27 -33 73
-65 73 -29 0 -76 26 -85 47 -5 10 -9 73 -11 141 -3 116 -1 129 27 210 38 106
96 218 157 301 37 49 73 81 162 141 253 172 354 284 478 530 76 149 80 156
120 170 61 23 100 56 124 106 23 46 33 50 96 38 18 -4 34 -14 37 -25 7 -22
119 -195 145 -224 11 -12 19 -42 22 -77 4 -49 11 -66 49 -115 39 -50 47 -71
63 -148 10 -49 29 -119 42 -155 24 -65 24 -65 4 -90 -11 -14 -39 -50 -62 -82
-37 -49 -49 -57 -85 -63 -75 -11 -138 -71 -164 -154 -6 -20 -13 -115 -16 -211
-2 -96 -9 -188 -15 -203 -6 -15 -36 -50 -67 -78 -42 -37 -72 -54 -122 -69 -78
-24 -112 -48 -149 -107 -16 -25 -57 -64 -97 -92 -107 -76 -279 -229 -397 -353
-101 -106 -264 -310 -295 -369 -11 -22 -25 -29 -74 -39 -116 -23 -165 -47
-247 -126 -66 -63 -93 -81 -181 -120 -132 -57 -355 -173 -490 -254 -289 -174
-512 -351 -780 -619 -113 -113 -222 -220 -242 -238 -37 -32 -48 -68 -27 -89 8
-8 -2 -22 -32 -46 l-43 -36 -35 29 c-56 47 -80 37 -133 -57 -28 -50 -37 -59
-64 -62 -28 -3 -32 0 -46 40 -8 24 -20 66 -26 93 -23 95 -61 121 -90 60 -13
-26 -12 -36 6 -90 11 -33 21 -75 22 -93 1 -18 9 -51 18 -73 19 -49 9 -66 -30
-48 -23 10 -31 9 -62 -16 -40 -30 -57 -62 -48 -94 4 -18 -4 -25 -58 -51 -35
-16 -75 -30 -89 -30 -14 0 -77 -19 -140 -42 -63 -23 -144 -45 -180 -49 -205
-22 -257 -40 -342 -117 -95 -85 -92 -132 18 -278 117 -156 195 -205 336 -212
86 -4 87 -4 189 43 119 56 166 63 273 41 81 -17 137 -11 195 19 33 17 96 85
105 113 4 11 13 23 20 25 8 3 30 30 51 61 30 46 44 57 85 71 57 19 93 52 126
117 31 61 78 114 108 122 13 3 33 21 44 40 11 19 33 42 49 52 15 9 40 25 55
35 15 11 39 19 53 19 32 0 53 11 124 63 53 39 55 40 98 29 58 -16 78 -15 93 3
45 54 594 463 662 493 89 39 404 216 541 303 141 90 333 225 442 309 33 25 76
52 95 60 205 78 694 317 955 467 304 173 624 334 678 340 38 5 56 -1 142 -45
89 -46 175 -77 440 -157 50 -16 169 -60 265 -100 96 -39 213 -87 260 -105 47
-18 115 -48 152 -66 173 -87 339 -141 533 -173 66 -12 136 -26 155 -31 19 -6
84 -21 143 -34 60 -14 116 -31 125 -39 9 -8 64 -38 122 -67 58 -29 130 -69
160 -89 65 -43 436 -319 605 -451 117 -91 238 -160 280 -160 12 0 106 -64 209
-142 290 -221 337 -248 409 -234 36 7 84 -30 227 -174 52 -53 109 -107 125
-121 17 -14 41 -45 55 -69 14 -23 60 -79 102 -124 45 -47 83 -96 89 -116 13
-40 101 -211 131 -252 12 -18 29 -28 44 -28 34 0 113 53 220 146 112 99 233
186 344 248 174 96 325 218 578 464 93 90 142 146 142 159 0 24 -59 79 -106
99 -81 34 -161 10 -322 -94 -89 -57 -137 -66 -337 -62 -93 2 -214 3 -268 3
l-98 -1 17 27 c92 143 155 211 220 235 69 26 94 43 88 61 -8 20 -65 20 -132 0
-36 -11 -69 -32 -111 -71 -45 -42 -65 -54 -80 -49 -14 4 -31 -4 -57 -29 -39
-37 -87 -53 -123 -41 -12 3 -41 22 -66 41 -36 27 -51 32 -74 28 -23 -5 -40 1
-75 27 -25 18 -46 34 -46 35 0 1 9 23 20 49 11 26 18 51 15 55 -3 5 -38 31
-78 57 -40 26 -136 103 -214 171 -413 360 -922 744 -1355 1024 -220 141 -240
152 -331 169 -61 12 -64 14 -187 133 -148 144 -310 276 -435 354 -49 31 -208
115 -352 187 l-261 130 21 40 c63 121 -4 243 -195 350 l-73 41 -43 104 -44
104 26 121 c44 203 57 312 63 532 6 230 -9 526 -33 631 -15 68 -28 97 -117
262 -46 86 -63 133 -94 255 -34 136 -38 162 -38 285 l0 135 57 140 c91 227
118 346 118 530 0 44 7 92 19 126 11 30 25 101 30 158 6 56 16 111 22 122 32
60 83 230 113 378 33 158 37 170 70 203 44 44 61 103 88 306 18 141 19 168 8
203 -12 34 -10 73 9 277 12 130 31 272 42 314 25 100 24 168 -1 218 -18 35
-18 40 -4 54 10 11 34 16 68 16 67 0 189 31 258 66 142 72 255 204 310 363 18
54 23 88 23 181 0 133 -11 183 -68 293 -70 137 -198 246 -350 299 -81 28 -256
34 -341 13z"/>
</g>
</svg>
